<svg width="16" height="16" viewBox="0 0 16 16" fill="none" xmlns="http://www.w3.org/2000/svg">
<path d="M16 8C16 8.25461 15.8989 8.49879 15.7188 8.67882C15.5388 8.85886 15.2946 8.96 15.04 8.96H8.96V15.04C8.96 15.2946 8.85886 15.5388 8.67882 15.7188C8.49879 15.8989 8.25461 16 8 16C7.74539 16 7.50121 15.8989 7.32118 15.7188C7.14114 15.5388 7.04 15.2946 7.04 15.04V8.96H0.96C0.705392 8.96 0.461212 8.85886 0.281178 8.67882C0.101143 8.49879 0 8.25461 0 8C0 7.74539 0.101143 7.50121 0.281178 7.32118C0.461212 7.14114 0.705392 7.04 0.96 7.04H7.04V0.96C7.04 0.705392 7.14114 0.461212 7.32118 0.281178C7.50121 0.101143 7.74539 0 8 0C8.25461 0 8.49879 0.101143 8.67882 0.281178C8.85886 0.461212 8.96 0.705392 8.96 0.96V7.04H15.04C15.2946 7.04 15.5388 7.14114 15.7188 7.32118C15.8989 7.50121 16 7.74539 16 8Z" fill="white"/>
</svg>
