<svg width="20" height="21" viewBox="0 0 20 21" fill="none" xmlns="http://www.w3.org/2000/svg">
<path fill-rule="evenodd" clip-rule="evenodd" d="M15.463 3C14.4807 3 13.5386 3.35119 12.844 3.97631C12.1495 4.60143 11.7593 5.44928 11.7593 6.33333C11.7593 7.21739 12.1495 8.06523 12.844 8.69036C13.5386 9.31548 14.4807 9.66667 15.463 9.66667C16.4452 9.66667 17.3873 9.31548 18.0819 8.69036C18.7765 8.06523 19.1667 7.21739 19.1667 6.33333C19.1667 5.44928 18.7765 4.60143 18.0819 3.97631C17.3873 3.35119 16.4452 3 15.463 3ZM2.5 14.6667C2.5 13.7826 2.89021 12.9348 3.58479 12.3096C4.27937 11.6845 5.22142 11.3333 6.2037 11.3333C7.18599 11.3333 8.12804 11.6845 8.82262 12.3096C9.5172 12.9348 9.90741 13.7826 9.90741 14.6667C9.90741 15.5507 9.5172 16.3986 8.82262 17.0237C8.12804 17.6488 7.18599 18 6.2037 18C5.22142 18 4.27937 17.6488 3.58479 17.0237C2.89021 16.3986 2.5 15.5507 2.5 14.6667ZM11.7593 12.1667C11.7593 11.9457 11.8568 11.7337 12.0305 11.5774C12.2041 11.4211 12.4396 11.3333 12.6852 11.3333H18.2407C18.4863 11.3333 18.7218 11.4211 18.8955 11.5774C19.0691 11.7337 19.1667 11.9457 19.1667 12.1667V16.3333C19.1667 16.7754 18.9716 17.1993 18.6243 17.5118C18.277 17.8244 17.806 18 17.3148 18H13.6111C13.12 18 12.6489 17.8244 12.3017 17.5118C11.9544 17.1993 11.7593 16.7754 11.7593 16.3333V12.1667ZM2.5 3.83333C2.5 3.61232 2.59755 3.40036 2.7712 3.24408C2.94484 3.0878 3.18036 3 3.42593 3H8.98148C9.22705 3 9.46256 3.0878 9.63621 3.24408C9.80985 3.40036 9.90741 3.61232 9.90741 3.83333V8C9.90741 8.44203 9.7123 8.86595 9.36501 9.17851C9.01772 9.49107 8.5467 9.66667 8.05556 9.66667H4.35185C3.86071 9.66667 3.38968 9.49107 3.04239 9.17851C2.69511 8.86595 2.5 8.44203 2.5 8V3.83333Z" fill="#14375F"/>
</svg>
