<svg width="20" height="19" viewBox="0 0 20 19" fill="none" xmlns="http://www.w3.org/2000/svg">
<path d="M3 11.75H12V3.875H3V11.75ZM2 18.5C1.45 18.5 0.979002 18.2795 0.587002 17.8385C0.195002 17.3975 -0.000664969 16.868 1.69779e-06 16.25V2.75C1.69779e-06 2.13125 0.196002 1.60138 0.588002 1.16038C0.980002 0.719377 1.45067 0.499252 2 0.500002H18C18.55 0.500002 19.021 0.720502 19.413 1.1615C19.805 1.6025 20.0007 2.132 20 2.75V16.25C20 16.8687 19.804 17.3986 19.412 17.8396C19.02 18.2806 18.5493 18.5007 18 18.5H2Z" fill="#14375F"/>
</svg>
