<svg width="20" height="19" viewBox="0 0 20 19" fill="none" xmlns="http://www.w3.org/2000/svg">
<path d="M20 8.73867V17.0599C20 17.4418 19.8244 17.8081 19.5118 18.0782C19.1993 18.3483 18.7753 18.5 18.3333 18.5H14.1667C13.7246 18.5 13.3007 18.3483 12.9881 18.0782C12.6756 17.8081 12.5 17.4418 12.5 17.0599V13.4596C12.5 13.2686 12.4122 13.0854 12.2559 12.9504C12.0996 12.8154 11.8877 12.7395 11.6667 12.7395H8.33332C8.11231 12.7395 7.90035 12.8154 7.74407 12.9504C7.58779 13.0854 7.49999 13.2686 7.49999 13.4596V17.0599C7.49999 17.4418 7.3244 17.8081 7.01184 18.0782C6.69928 18.3483 6.27535 18.5 5.83333 18.5H1.66666C1.22464 18.5 0.800715 18.3483 0.488155 18.0782C0.175594 17.8081 1.92581e-08 17.4418 1.92581e-08 17.0599V8.73867C-3.50446e-05 8.53936 0.0478116 8.34221 0.140512 8.1597C0.233212 7.97719 0.368747 7.81329 0.538541 7.67838L8.87186 0.884602L8.88332 0.874701C9.19014 0.633601 9.58996 0.5 10.0047 0.5C10.4194 0.5 10.8192 0.633601 11.126 0.874701C11.1296 0.878223 11.1334 0.881531 11.1375 0.884602L19.4708 7.67838C19.6389 7.814 19.7727 7.97822 19.8638 8.16069C19.9548 8.34317 20.0012 8.53995 20 8.73867Z" fill="#14375F"/>
</svg>
