<svg width="20" height="20" viewBox="0 0 20 20" fill="none" xmlns="http://www.w3.org/2000/svg">
<path d="M13.4163 3.19988C13.8651 2.75117 14.4739 2.49915 15.1086 2.49927C15.7433 2.49938 16.3519 2.75163 16.8006 3.20051C17.2493 3.64939 17.5014 4.25813 17.5012 4.89282C17.5011 5.52752 17.2489 6.13617 16.8 6.58488L15.8838 7.49988L16.2125 7.82738C16.4157 8.03051 16.5768 8.27167 16.6867 8.53709C16.7967 8.8025 16.8533 9.08697 16.8533 9.37426C16.8533 9.66154 16.7967 9.94601 16.6867 10.2114C16.5768 10.4768 16.4157 10.718 16.2125 10.9211L14.8175 12.3161C14.7003 12.4335 14.5413 12.4995 14.3754 12.4996C14.2096 12.4997 14.0505 12.434 13.9331 12.3168C13.8158 12.1996 13.7498 12.0406 13.7497 11.8747C13.7495 11.7088 13.8153 11.5497 13.9325 11.4324L15.3288 10.0374C15.4159 9.95032 15.485 9.84694 15.5321 9.73316C15.5793 9.61938 15.6036 9.49742 15.6036 9.37426C15.6036 9.25109 15.5793 9.12913 15.5321 9.01535C15.485 8.90157 15.4159 8.79819 15.3288 8.71113L15 8.38488L7.55625 15.8274C7.33016 16.0534 7.05456 16.2238 6.75125 16.3249L3.3225 17.4686C3.21235 17.5053 3.09417 17.5105 2.98121 17.4838C2.86825 17.457 2.76497 17.3993 2.68295 17.3172C2.60093 17.235 2.54341 17.1317 2.51684 17.0186C2.49027 16.9056 2.49569 16.7875 2.5325 16.6774L3.675 13.2499C3.7762 12.9466 3.94652 12.671 4.1725 12.4449L13.4163 3.20238V3.19988Z" fill="#14375F"/>
</svg>
