<svg width="20" height="15" viewBox="0 0 20 15" fill="none" xmlns="http://www.w3.org/2000/svg">
<path d="M16.2353 6.33333C16.3529 5.98333 16.4706 5.63333 16.4706 5.16667C16.4706 2.6 14.3529 0.5 11.7647 0.5C10 0.5 8.35294 1.55 7.64706 3.06667C7.29412 2.95 6.82353 2.83333 6.47059 2.83333C4.82353 2.83333 3.52941 4.11667 3.52941 5.75C3.52941 5.98333 3.52941 6.21667 3.64706 6.33333C1.52941 6.68333 0 8.31667 0 10.4167C0 12.6333 1.88235 14.5 4.11765 14.5H15.8824C18.1176 14.5 20 12.6333 20 10.4167C20 8.31667 18.3529 6.56667 16.2353 6.33333ZM8.82353 13.2167L5.05882 9.48333L6.70588 7.85L8.82353 9.95L13.2941 5.51667L14.9412 7.15L8.82353 13.2167Z" fill="#14375F"/>
</svg>
