<svg width="16" height="16" viewBox="0 0 16 16" fill="none" xmlns="http://www.w3.org/2000/svg">
<path fill-rule="evenodd" clip-rule="evenodd" d="M6.16601 11.7657C6.01599 11.9156 5.81255 11.9999 5.60041 11.9999C5.38828 11.9999 5.18484 11.9156 5.03482 11.7657L1.83482 8.56566C1.68484 8.41563 1.60059 8.21219 1.60059 8.00006C1.60059 7.78793 1.68484 7.58448 1.83482 7.43446L5.03482 4.23446C5.1857 4.08873 5.38778 4.0081 5.59754 4.00992C5.80729 4.01174 6.00794 4.09588 6.15627 4.2442C6.3046 4.39253 6.38873 4.59318 6.39055 4.80294C6.39238 5.01269 6.31174 5.21478 6.16601 5.36566L4.33161 7.20006H13.6004C13.8126 7.20006 14.0161 7.28434 14.1661 7.43437C14.3161 7.5844 14.4004 7.78788 14.4004 8.00006C14.4004 8.21223 14.3161 8.41571 14.1661 8.56574C14.0161 8.71577 13.8126 8.80006 13.6004 8.80006H4.33161L6.16601 10.6345C6.31599 10.7845 6.40024 10.9879 6.40024 11.2001C6.40024 11.4122 6.31599 11.6156 6.16601 11.7657Z" fill="white"/>
</svg>
