<svg width="16" height="17" viewBox="0 0 16 17" fill="none" xmlns="http://www.w3.org/2000/svg">
<path d="M13.9348 8.85601C13.9996 8.68585 14.0166 8.49862 13.9835 8.31799C13.9504 8.13736 13.8687 7.97146 13.7487 7.84127L10.32 4.11746C10.2409 4.02855 10.1463 3.95762 10.0417 3.90883C9.93713 3.86004 9.82465 3.83436 9.71083 3.83329C9.59701 3.83221 9.48414 3.85577 9.37879 3.90258C9.27344 3.94939 9.17774 4.01851 9.09725 4.10592C9.01677 4.19333 8.95312 4.29727 8.91002 4.41168C8.86692 4.5261 8.84523 4.64868 8.84622 4.77229C8.84721 4.89591 8.87085 5.01806 8.91578 5.13164C8.9607 5.24522 9.02601 5.34795 9.10788 5.43383L11.0743 7.56943H2.8572C2.62985 7.56943 2.41182 7.66751 2.25107 7.8421C2.09031 8.01669 2 8.25348 2 8.50038C2 8.74729 2.09031 8.98408 2.25107 9.15867C2.41182 9.33325 2.62985 9.43134 2.8572 9.43134H11.0743L9.10874 11.566C9.02686 11.6519 8.96156 11.7546 8.91664 11.8682C8.87171 11.9818 8.84806 12.1039 8.84707 12.2275C8.84609 12.3512 8.86777 12.4737 8.91088 12.5882C8.95398 12.7026 9.01763 12.8065 9.09811 12.8939C9.1786 12.9813 9.2743 13.0505 9.37965 13.0973C9.485 13.1441 9.59787 13.1676 9.71169 13.1666C9.82551 13.1655 9.93799 13.1398 10.0426 13.091C10.1472 13.0422 10.2417 12.9713 10.3208 12.8824L13.7496 9.15857C13.829 9.0719 13.8919 8.96909 13.9348 8.85601Z" fill="white"/>
</svg>
