<svg width="24" height="25" viewBox="0 0 24 25" fill="none" xmlns="http://www.w3.org/2000/svg">
<path d="M12 3.5C10.22 3.5 8.47991 4.02784 6.99987 5.01677C5.51983 6.00571 4.36628 7.41131 3.68509 9.05585C3.0039 10.7004 2.82567 12.51 3.17294 14.2558C3.5202 16.0016 4.37737 17.6053 5.63604 18.864C6.89472 20.1226 8.49836 20.9798 10.2442 21.3271C11.99 21.6743 13.7996 21.4961 15.4442 20.8149C17.0887 20.1337 18.4943 18.9802 19.4832 17.5001C20.4722 16.0201 21 14.28 21 12.5C20.9974 10.1139 20.0483 7.82619 18.3611 6.13893C16.6738 4.45167 14.3861 3.50262 12 3.5ZM15.3363 11.3363L11.7363 14.9363C11.5675 15.105 11.3387 15.1998 11.1 15.1998C10.8614 15.1998 10.6325 15.105 10.4637 14.9363L8.6637 13.1363C8.49976 12.9666 8.40905 12.7392 8.4111 12.5032C8.41315 12.2673 8.5078 12.0415 8.67467 11.8747C8.84153 11.7078 9.06727 11.6131 9.30324 11.6111C9.53922 11.609 9.76656 11.6998 9.9363 11.8637L11.1 13.0274L14.0637 10.0637C14.2334 9.89976 14.4608 9.80904 14.6968 9.81109C14.9327 9.81314 15.1585 9.90779 15.3253 10.0747C15.4922 10.2415 15.5869 10.4673 15.5889 10.7032C15.591 10.9392 15.5002 11.1666 15.3363 11.3363Z" fill="#1F2A37"/>
</svg>
