<svg width="16" height="16" viewBox="0 0 16 16" fill="none" xmlns="http://www.w3.org/2000/svg">
<path d="M4.39984 10.4C3.68346 10.399 2.99469 10.1235 2.47525 9.63018C1.95582 9.13683 1.64524 8.46315 1.60742 7.74777C1.5696 7.03239 1.80742 6.32972 2.27194 5.78436C2.73646 5.239 3.39235 4.89242 4.10464 4.81595C3.8949 3.99347 4.02049 3.12135 4.45378 2.39146C4.88706 1.66156 5.59255 1.13369 6.41504 0.923955C7.23753 0.714221 8.10964 0.839811 8.83954 1.2731C9.56943 1.70638 10.0973 2.41187 10.307 3.23435C10.7962 3.16624 11.2941 3.19951 11.7699 3.33209C12.2456 3.46466 12.689 3.69371 13.0725 4.00498C13.4559 4.31625 13.7712 4.70309 13.9987 5.14143C14.2262 5.57977 14.3611 6.06024 14.395 6.55296C14.4289 7.04567 14.3611 7.54008 14.1957 8.00545C14.0303 8.47081 13.7709 8.89717 13.4337 9.258C13.0965 9.61884 12.6887 9.90642 12.2355 10.1029C11.7824 10.2993 11.2937 10.4005 10.7998 10.4H8.79984V7.53035L9.83424 8.56475C9.98512 8.71048 10.1872 8.79112 10.397 8.78929C10.6067 8.78747 10.8074 8.70334 10.9557 8.55501C11.104 8.40668 11.1882 8.20603 11.19 7.99628C11.1918 7.78652 11.1112 7.58444 10.9654 7.43355L8.56544 5.03355C8.41541 4.88358 8.21197 4.79933 7.99984 4.79933C7.78771 4.79933 7.58426 4.88358 7.43424 5.03355L5.03424 7.43355C4.88851 7.58444 4.80787 7.78652 4.8097 7.99628C4.81152 8.20603 4.89566 8.40668 5.04398 8.55501C5.19231 8.70334 5.39296 8.78747 5.60272 8.78929C5.81247 8.79112 6.01455 8.71048 6.16544 8.56475L7.19984 7.53115V10.4H4.39984Z" fill="white"/>
<path d="M7.2002 10.3999H8.8002V14.3999C8.8002 14.6121 8.71591 14.8156 8.56588 14.9656C8.41585 15.1156 8.21237 15.1999 8.0002 15.1999C7.78802 15.1999 7.58454 15.1156 7.43451 14.9656C7.28448 14.8156 7.2002 14.6121 7.2002 14.3999V10.3999Z" fill="white"/>
</svg>
