<svg width="16" height="17" viewBox="0 0 16 17" fill="none" xmlns="http://www.w3.org/2000/svg">
<path fill-rule="evenodd" clip-rule="evenodd" d="M3.43442 3.93439C3.58445 3.78441 3.78789 3.70016 4.00002 3.70016C4.21216 3.70016 4.4156 3.78441 4.56562 3.93439L8.00002 7.36879L11.4344 3.93439C11.5082 3.85798 11.5965 3.79703 11.6941 3.7551C11.7917 3.71318 11.8967 3.69111 12.0029 3.69019C12.1091 3.68926 12.2145 3.7095 12.3128 3.74973C12.4111 3.78995 12.5004 3.84936 12.5755 3.92447C12.6507 3.99958 12.7101 4.08891 12.7503 4.18722C12.7905 4.28554 12.8107 4.39088 12.8098 4.49711C12.8089 4.60333 12.7868 4.70831 12.7449 4.80591C12.703 4.90351 12.642 4.99179 12.5656 5.06559L9.13122 8.49999L12.5656 11.9344C12.7114 12.0853 12.792 12.2873 12.7902 12.4971C12.7883 12.7069 12.7042 12.9075 12.5559 13.0558C12.4076 13.2042 12.2069 13.2883 11.9971 13.2901C11.7874 13.2919 11.5853 13.2113 11.4344 13.0656L8.00002 9.63119L4.56562 13.0656C4.41474 13.2113 4.21266 13.2919 4.0029 13.2901C3.79315 13.2883 3.5925 13.2042 3.44417 13.0558C3.29584 12.9075 3.21171 12.7069 3.20989 12.4971C3.20806 12.2873 3.2887 12.0853 3.43442 11.9344L6.86883 8.49999L3.43442 5.06559C3.28445 4.91556 3.2002 4.71212 3.2002 4.49999C3.2002 4.28785 3.28445 4.08441 3.43442 3.93439V3.93439Z" fill="white"/>
</svg>
