<svg width="20" height="20" viewBox="0 0 20 20" fill="none" xmlns="http://www.w3.org/2000/svg">
<g id="paper-airplane">
<path id="Vector" d="M10.8937 2.55291C10.8106 2.38703 10.6829 2.24755 10.525 2.15007C10.3671 2.0526 10.1853 2.00098 9.9997 2.00098C9.81415 2.00098 9.63226 2.0526 9.47438 2.15007C9.31649 2.24755 9.18884 2.38703 9.1057 2.55291L2.1057 16.5529C2.01885 16.7265 1.98439 16.9216 2.00653 17.1144C2.02867 17.3073 2.10645 17.4895 2.23039 17.6389C2.35433 17.7883 2.51907 17.8984 2.70451 17.9557C2.88994 18.0131 3.08806 18.0152 3.2747 17.9619L8.2747 16.5329C8.48368 16.4731 8.66749 16.3469 8.79831 16.1733C8.92912 15.9997 8.99982 15.7883 8.9997 15.5709V10.9999C8.9997 10.7347 9.10506 10.4803 9.2926 10.2928C9.48013 10.1053 9.73449 9.99991 9.9997 9.99991C10.2649 9.99991 10.5193 10.1053 10.7068 10.2928C10.8943 10.4803 10.9997 10.7347 10.9997 10.9999V15.5709C10.9996 15.7883 11.0703 15.9997 11.2011 16.1733C11.3319 16.3469 11.5157 16.4731 11.7247 16.5329L16.7247 17.9609C16.9113 18.0143 17.1094 18.0123 17.2948 17.9551C17.4803 17.8979 17.6451 17.7879 17.7691 17.6387C17.8931 17.4894 17.9711 17.3073 17.9934 17.1145C18.0157 16.9217 17.9814 16.7266 17.8947 16.5529L10.8947 2.55291H10.8937Z" fill="white"/>
</g>
</svg>
