<svg width="16" height="17" viewBox="0 0 16 17" fill="none" xmlns="http://www.w3.org/2000/svg">
<path d="M13.9308 2.5688C13.6308 2.26885 13.2239 2.10034 12.7996 2.10034C12.3753 2.10034 11.9685 2.26885 11.6684 2.5688L5.59961 8.6376V10.9H7.86201L13.9308 4.8312C14.2308 4.53116 14.3993 4.12426 14.3993 3.7C14.3993 3.27574 14.2308 2.86884 13.9308 2.5688Z" fill="white"/>
<path fill-rule="evenodd" clip-rule="evenodd" d="M1.59961 5.30001C1.59961 4.87567 1.76818 4.4687 2.06824 4.16864C2.3683 3.86858 2.77526 3.70001 3.19961 3.70001H6.39961C6.61178 3.70001 6.81527 3.7843 6.96529 3.93433C7.11532 4.08436 7.19961 4.28784 7.19961 4.50001C7.19961 4.71219 7.11532 4.91567 6.96529 5.0657C6.81527 5.21573 6.61178 5.30001 6.39961 5.30001H3.19961V13.3H11.1996V10.1C11.1996 9.88784 11.2839 9.68436 11.4339 9.53433C11.584 9.3843 11.7874 9.30001 11.9996 9.30001C12.2118 9.30001 12.4153 9.3843 12.5653 9.53433C12.7153 9.68436 12.7996 9.88784 12.7996 10.1V13.3C12.7996 13.7244 12.631 14.1313 12.331 14.4314C12.0309 14.7314 11.624 14.9 11.1996 14.9H3.19961C2.77526 14.9 2.3683 14.7314 2.06824 14.4314C1.76818 14.1313 1.59961 13.7244 1.59961 13.3V5.30001Z" fill="white"/>
</svg>
