<svg width="16" height="17" viewBox="0 0 16 17" fill="none" xmlns="http://www.w3.org/2000/svg">
<path d="M6.16521 8.73439C6.09141 8.65799 6.00314 8.59704 5.90553 8.55511C5.80793 8.51319 5.70295 8.49112 5.59673 8.49019C5.49051 8.48927 5.38516 8.50951 5.28685 8.54974C5.18853 8.58996 5.09921 8.64936 5.02409 8.72448C4.94898 8.79959 4.88958 8.88891 4.84935 8.98723C4.80913 9.08555 4.78889 9.19089 4.78981 9.29712C4.79073 9.40334 4.8128 9.50831 4.85473 9.60592C4.89666 9.70352 4.9576 9.7918 5.03401 9.86559L7.43401 12.2656C7.58403 12.4156 7.78748 12.4998 7.99961 12.4998C8.21174 12.4998 8.41519 12.4156 8.56521 12.2656L10.9652 9.86559C11.1109 9.71471 11.1916 9.51263 11.1897 9.30287C11.1879 9.09312 11.1038 8.89247 10.9555 8.74414C10.8071 8.59581 10.6065 8.51168 10.3967 8.50986C10.187 8.50803 9.98489 8.58867 9.83401 8.73439L8.79961 9.76879V5.29999H12.7996C13.224 5.29999 13.6309 5.46857 13.931 5.76862C14.231 6.06868 14.3996 6.47565 14.3996 6.89999V12.5C14.3996 12.9243 14.231 13.3313 13.931 13.6314C13.6309 13.9314 13.224 14.1 12.7996 14.1H3.19961C2.77526 14.1 2.3683 13.9314 2.06824 13.6314C1.76818 13.3313 1.59961 12.9243 1.59961 12.5V6.89999C1.59961 6.47565 1.76818 6.06868 2.06824 5.76862C2.3683 5.46857 2.77526 5.29999 3.19961 5.29999H7.19961V9.76879L6.16521 8.73439V8.73439ZM7.19961 3.69999C7.19961 3.48782 7.28389 3.28434 7.43392 3.13431C7.58395 2.98428 7.78744 2.89999 7.99961 2.89999C8.21178 2.89999 8.41527 2.98428 8.56529 3.13431C8.71532 3.28434 8.79961 3.48782 8.79961 3.69999V5.29999H7.19961V3.69999Z" fill="#1F2A37"/>
</svg>
