<svg width="20" height="21" viewBox="0 0 20 21" fill="none" xmlns="http://www.w3.org/2000/svg">
<path d="M8.50007 15C7.31337 15 6.15332 14.6481 5.16661 13.9888C4.17991 13.3295 3.41086 12.3925 2.95673 11.2961C2.5026 10.1997 2.38378 8.99334 2.61529 7.82946C2.84681 6.66557 3.41826 5.59648 4.25738 4.75736C5.09651 3.91825 6.16562 3.3468 7.32952 3.11529C8.49342 2.88378 9.69983 3.0026 10.7962 3.45673C11.8926 3.91085 12.8297 4.67989 13.4889 5.66658C14.1482 6.65327 14.5001 7.81331 14.5001 9C14.4984 10.5907 13.8656 12.1158 12.7408 13.2407C11.6159 14.3655 10.0908 14.9982 8.50007 15ZM8.50007 4.5C7.61005 4.5 6.74001 4.76392 5.99998 5.25839C5.25995 5.75285 4.68316 6.45566 4.34257 7.27793C4.00197 8.10019 3.91285 9.00499 4.08649 9.87791C4.26012 10.7508 4.68871 11.5526 5.31805 12.182C5.9474 12.8113 6.74923 13.2399 7.62216 13.4135C8.49508 13.5872 9.39989 13.498 10.2222 13.1575C11.0444 12.8169 11.7473 12.2401 12.2417 11.5001C12.7362 10.76 13.0001 9.89002 13.0001 9C12.9989 7.80689 12.5244 6.66299 11.6808 5.81934C10.8371 4.97568 9.69319 4.50119 8.50007 4.5Z" fill="white"/>
<path d="M16.7502 18C16.5513 18 16.3605 17.9209 16.2199 17.7803L13.2199 14.7803C13.0832 14.6388 13.0076 14.4493 13.0094 14.2527C13.0111 14.0561 13.0899 13.8679 13.229 13.7289C13.3681 13.5898 13.5562 13.511 13.7528 13.5092C13.9495 13.5075 14.1389 13.5831 14.2804 13.7198L17.2804 16.7198C17.3853 16.8246 17.4567 16.9583 17.4856 17.1037C17.5145 17.2492 17.4997 17.4 17.4429 17.537C17.3862 17.674 17.2901 17.7911 17.1667 17.8736C17.0434 17.956 16.8985 18 16.7502 18Z" fill="white"/>
</svg>
