<svg width="24" height="25" viewBox="0 0 24 25" fill="none" xmlns="http://www.w3.org/2000/svg">
<path d="M20 6.71053H16V4.60526C16 4.04691 15.7893 3.51143 15.4142 3.11662C15.0391 2.7218 14.5304 2.5 14 2.5H10C9.46957 2.5 8.96086 2.7218 8.58579 3.11662C8.21071 3.51143 8 4.04691 8 4.60526V6.71053H4C3.73478 6.71053 3.48043 6.82143 3.29289 7.01884C3.10536 7.21624 3 7.48398 3 7.76316C3 8.04233 3.10536 8.31007 3.29289 8.50748C3.48043 8.70489 3.73478 8.81579 4 8.81579H5V20.3947C5 20.9531 5.21071 21.4886 5.58579 21.8834C5.96086 22.2782 6.46957 22.5 7 22.5H17C17.5304 22.5 18.0391 22.2782 18.4142 21.8834C18.7893 21.4886 19 20.9531 19 20.3947V8.81579H20C20.2652 8.81579 20.5196 8.70489 20.7071 8.50748C20.8946 8.31007 21 8.04233 21 7.76316C21 7.48398 20.8946 7.21624 20.7071 7.01884C20.5196 6.82143 20.2652 6.71053 20 6.71053ZM10 4.60526H14V6.71053H10V4.60526ZM11 18.2895C11 18.5686 10.8946 18.8364 10.7071 19.0338C10.5196 19.2312 10.2652 19.3421 10 19.3421C9.73478 19.3421 9.48043 19.2312 9.29289 19.0338C9.10536 18.8364 9 18.5686 9 18.2895V10.9211C9 10.6419 9.10536 10.3741 9.29289 10.1767C9.48043 9.97932 9.73478 9.86842 10 9.86842C10.2652 9.86842 10.5196 9.97932 10.7071 10.1767C10.8946 10.3741 11 10.6419 11 10.9211V18.2895ZM15 18.2895C15 18.5686 14.8946 18.8364 14.7071 19.0338C14.5196 19.2312 14.2652 19.3421 14 19.3421C13.7348 19.3421 13.4804 19.2312 13.2929 19.0338C13.1054 18.8364 13 18.5686 13 18.2895V10.9211C13 10.6419 13.1054 10.3741 13.2929 10.1767C13.4804 9.97932 13.7348 9.86842 14 9.86842C14.2652 9.86842 14.5196 9.97932 14.7071 10.1767C14.8946 10.3741 15 10.6419 15 10.9211V18.2895Z" fill="#1F2A37"/>
</svg>
