<svg width="16" height="17" viewBox="0 0 16 17" fill="none" xmlns="http://www.w3.org/2000/svg">
<path d="M6.39961 7.69999C7.03613 7.69999 7.64658 7.44714 8.09667 6.99705C8.54675 6.54696 8.79961 5.93651 8.79961 5.29999C8.79961 4.66347 8.54675 4.05303 8.09667 3.60294C7.64658 3.15285 7.03613 2.89999 6.39961 2.89999C5.76309 2.89999 5.15264 3.15285 4.70255 3.60294C4.25247 4.05303 3.99961 4.66347 3.99961 5.29999C3.99961 5.93651 4.25247 6.54696 4.70255 6.99705C5.15264 7.44714 5.76309 7.69999 6.39961 7.69999V7.69999ZM6.39961 9.29999C7.67265 9.29999 8.89355 9.80571 9.79372 10.7059C10.6939 11.6061 11.1996 12.827 11.1996 14.1H1.59961C1.59961 12.827 2.10532 11.6061 3.0055 10.7059C3.90567 9.80571 5.12657 9.29999 6.39961 9.29999V9.29999ZM12.7996 6.09999C12.7996 5.88782 12.7153 5.68434 12.5653 5.53431C12.4153 5.38428 12.2118 5.29999 11.9996 5.29999C11.7874 5.29999 11.584 5.38428 11.4339 5.53431C11.2839 5.68434 11.1996 5.88782 11.1996 6.09999V6.89999H10.3996C10.1874 6.89999 9.98395 6.98428 9.83392 7.13431C9.68389 7.28434 9.59961 7.48782 9.59961 7.69999C9.59961 7.91217 9.68389 8.11565 9.83392 8.26568C9.98395 8.41571 10.1874 8.49999 10.3996 8.49999H11.1996V9.29999C11.1996 9.51217 11.2839 9.71565 11.4339 9.86568C11.584 10.0157 11.7874 10.1 11.9996 10.1C12.2118 10.1 12.4153 10.0157 12.5653 9.86568C12.7153 9.71565 12.7996 9.51217 12.7996 9.29999V8.49999H13.5996C13.8118 8.49999 14.0153 8.41571 14.1653 8.26568C14.3153 8.11565 14.3996 7.91217 14.3996 7.69999C14.3996 7.48782 14.3153 7.28434 14.1653 7.13431C14.0153 6.98428 13.8118 6.89999 13.5996 6.89999H12.7996V6.09999Z" fill="white"/>
</svg>
