<svg width="41" height="41" viewBox="0 0 41 41" fill="none" xmlns="http://www.w3.org/2000/svg">
<g id="upload">
<g id="Vector">
<path d="M28.3447 11.1728L21.678 4.33543C21.5232 4.17625 21.3393 4.04995 21.1368 3.96378C20.9343 3.87761 20.7172 3.83325 20.498 3.83325C20.2788 3.83325 20.0617 3.87761 19.8592 3.96378C19.6567 4.04995 19.4728 4.17625 19.318 4.33543L12.6513 11.1728C12.3388 11.4937 12.1634 11.9289 12.1637 12.3825C12.1641 12.8361 12.3401 13.271 12.653 13.5915C12.966 13.912 13.3902 14.0919 13.8325 14.0915C14.2748 14.0912 14.6988 13.9107 15.0113 13.5898L18.833 9.67026V24.3466C18.833 24.7999 19.0086 25.2347 19.3212 25.5553C19.6337 25.8758 20.0576 26.0559 20.4997 26.0559C20.9417 26.0559 21.3656 25.8758 21.6782 25.5553C21.9907 25.2347 22.1663 24.7999 22.1663 24.3466V9.67026L25.988 13.5898C26.3023 13.9011 26.7233 14.0734 27.1603 14.0695C27.5973 14.0656 28.0154 13.8859 28.3244 13.5689C28.6334 13.252 28.8087 12.8233 28.8125 12.3751C28.8163 11.9269 28.6483 11.4951 28.3447 11.1728Z" fill="#9CA3AF"/>
<path d="M33.833 23.4919H25.4997V24.3466C25.4997 25.7066 24.9729 27.0109 24.0352 27.9726C23.0975 28.9343 21.8258 29.4746 20.4997 29.4746C19.1736 29.4746 17.9018 28.9343 16.9641 27.9726C16.0265 27.0109 15.4997 25.7066 15.4997 24.3466V23.4919H7.16634C6.28229 23.4919 5.43444 23.8521 4.80932 24.4932C4.1842 25.1344 3.83301 26.0039 3.83301 26.9106V33.7479C3.83301 34.6546 4.1842 35.5242 4.80932 36.1653C5.43444 36.8064 6.28229 37.1666 7.16634 37.1666H33.833C34.7171 37.1666 35.5649 36.8064 36.19 36.1653C36.8152 35.5242 37.1663 34.6546 37.1663 33.7479V26.9106C37.1663 26.0039 36.8152 25.1344 36.19 24.4932C35.5649 23.8521 34.7171 23.4919 33.833 23.4919ZM29.6663 33.7479C29.1719 33.7479 28.6885 33.5975 28.2774 33.3158C27.8663 33.0341 27.5459 32.6336 27.3566 32.1651C27.1674 31.6966 27.1179 31.1811 27.2144 30.6837C27.3108 30.1863 27.5489 29.7295 27.8986 29.3709C28.2482 29.0123 28.6937 28.7681 29.1786 28.6692C29.6636 28.5703 30.1662 28.621 30.623 28.8151C31.0799 29.0092 31.4703 29.3378 31.745 29.7594C32.0197 30.1811 32.1663 30.6768 32.1663 31.1839C32.1663 31.8639 31.903 32.5161 31.4341 32.9969C30.9653 33.4778 30.3294 33.7479 29.6663 33.7479Z" fill="#9CA3AF"/>
</g>
</g>
</svg>
