<svg width="14" height="10" viewBox="0 0 14 10" fill="none" xmlns="http://www.w3.org/2000/svg">
<path d="M7 9.99998C6.83261 10.0009 6.66674 9.96154 6.51213 9.88409C6.35753 9.80664 6.2173 9.69271 6.09967 9.54898L0.205032 2.37394C0.0497829 2.08498 -0.0205808 1.74148 0.00521889 1.39851C0.0310185 1.05553 0.151488 0.732944 0.347318 0.482441C0.543147 0.231938 0.802997 0.0680284 1.08522 0.0169845C1.36744 -0.0340594 1.65569 0.0307185 1.90377 0.200934L7 6.35097L12.0962 0.200934C12.3443 0.0307185 12.6326 -0.0340594 12.9148 0.0169845C13.197 0.0680284 13.4569 0.231938 13.6527 0.482441C13.8485 0.732944 13.969 1.05553 13.9948 1.39851C14.0206 1.74148 13.9502 2.08498 13.795 2.37394L7.84937 9.54898C7.62427 9.82454 7.32042 9.98587 7 9.99998Z" fill="#14375F"/>
</svg>
