<svg width="40" height="40" viewBox="0 0 40 40" fill="none" xmlns="http://www.w3.org/2000/svg">
<path d="M25.8333 23.3333H24.5167L24.05 22.8833C25.7398 20.9234 26.6685 18.4212 26.6667 15.8333C26.6667 13.6907 26.0313 11.5962 24.8409 9.81466C23.6505 8.03313 21.9586 6.64459 19.9791 5.82464C17.9995 5.00469 15.8213 4.79016 13.7199 5.20816C11.6184 5.62617 9.68808 6.65795 8.17301 8.17301C6.65795 9.68808 5.62617 11.6184 5.20816 13.7199C4.79016 15.8213 5.00469 17.9995 5.82464 19.9791C6.64459 21.9586 8.03313 23.6505 9.81466 24.8409C11.5962 26.0313 13.6907 26.6667 15.8333 26.6667C18.5167 26.6667 20.9833 25.6833 22.8833 24.05L23.3333 24.5167V25.8333L31.6667 34.15L34.15 31.6667L25.8333 23.3333ZM15.8333 23.3333C11.6833 23.3333 8.33334 19.9833 8.33334 15.8333C8.33334 11.6833 11.6833 8.33334 15.8333 8.33334C19.9833 8.33334 23.3333 11.6833 23.3333 15.8333C23.3333 19.9833 19.9833 23.3333 15.8333 23.3333Z" fill="#707070" fill-opacity="0.733333"/>
</svg>
