<svg width="40" height="40" viewBox="0 0 40 40" fill="none" xmlns="http://www.w3.org/2000/svg">
<g clip-path="url(#clip0_150_1634)">
<path d="M20 14C18.4087 14 16.8826 14.6321 15.7574 15.7574C14.6321 16.8826 14 18.4087 14 20C14 21.5913 14.6321 23.1174 15.7574 24.2426C16.8826 25.3679 18.4087 26 20 26C21.5913 26 23.1174 25.3679 24.2426 24.2426C25.3679 23.1174 26 21.5913 26 20C26 18.4087 25.3679 16.8826 24.2426 15.7574C23.1174 14.6321 21.5913 14 20 14ZM20 10C22.6522 10 25.1957 11.0536 27.0711 12.9289C28.9464 14.8043 30 17.3478 30 20C30 22.6522 28.9464 25.1957 27.0711 27.0711C25.1957 28.9464 22.6522 30 20 30C17.3478 30 14.8043 28.9464 12.9289 27.0711C11.0536 25.1957 10 22.6522 10 20C10 17.3478 11.0536 14.8043 12.9289 12.9289C14.8043 11.0536 17.3478 10 20 10ZM33 9.5C33 10.163 32.7366 10.7989 32.2678 11.2678C31.7989 11.7366 31.163 12 30.5 12C29.837 12 29.2011 11.7366 28.7322 11.2678C28.2634 10.7989 28 10.163 28 9.5C28 8.83696 28.2634 8.20107 28.7322 7.73223C29.2011 7.26339 29.837 7 30.5 7C31.163 7 31.7989 7.26339 32.2678 7.73223C32.7366 8.20107 33 8.83696 33 9.5ZM20 4C15.052 4 14.244 4.014 11.942 4.116C10.374 4.19 9.322 4.4 8.346 4.78C7.52923 5.07988 6.79083 5.56052 6.186 6.186C5.56001 6.7908 5.07871 7.52917 4.778 8.346C4.398 9.326 4.188 10.376 4.116 11.942C4.012 14.15 3.998 14.922 3.998 20C3.998 24.95 4.012 25.756 4.114 28.058C4.188 29.624 4.398 30.678 4.776 31.652C5.116 32.522 5.516 33.148 6.18 33.812C6.854 34.484 7.48 34.886 8.34 35.218C9.328 35.6 10.38 35.812 11.94 35.884C14.148 35.988 14.92 36 19.998 36C24.948 36 25.754 35.986 28.056 35.884C29.62 35.81 30.672 35.6 31.65 35.222C32.466 34.9206 33.2041 34.4402 33.81 33.816C34.484 33.144 34.886 32.518 35.218 31.656C35.598 30.672 35.81 29.62 35.882 28.056C35.986 25.85 35.998 25.076 35.998 20C35.998 15.052 35.984 14.244 35.882 11.942C35.808 10.378 35.596 9.322 35.218 8.346C34.9165 7.53003 34.4361 6.79196 33.812 6.186C33.2075 5.55969 32.469 5.07833 31.652 4.778C30.672 4.398 29.62 4.188 28.056 4.116C25.85 4.012 25.08 4 20 4ZM20 0C25.434 0 26.112 0.0199999 28.246 0.12C30.374 0.22 31.826 0.554 33.1 1.05C34.42 1.558 35.532 2.246 36.644 3.356C37.661 4.35579 38.4479 5.56518 38.95 6.9C39.444 8.174 39.78 9.626 39.88 11.756C39.974 13.888 40 14.566 40 20C40 25.434 39.98 26.112 39.88 28.244C39.78 30.374 39.444 31.824 38.95 33.1C38.4493 34.4355 37.6622 35.6452 36.644 36.644C35.6439 37.6606 34.4346 38.4475 33.1 38.95C31.826 39.444 30.374 39.78 28.246 39.88C26.112 39.974 25.434 40 20 40C14.566 40 13.888 39.98 11.754 39.88C9.626 39.78 8.176 39.444 6.9 38.95C5.56465 38.4489 4.35505 37.6619 3.356 36.644C2.33886 35.6443 1.55192 34.4349 1.05 33.1C0.554 31.826 0.22 30.374 0.12 28.244C0.0240004 26.112 0 25.434 0 20C0 14.566 0.0200004 13.888 0.12 11.756C0.22 9.624 0.554 8.176 1.05 6.9C1.55047 5.56436 2.33761 4.35464 3.356 3.356C4.35534 2.33846 5.56486 1.55146 6.9 1.05C8.174 0.554 9.624 0.22 11.754 0.12C13.888 0.0259999 14.566 0 20 0Z" fill="black"/>
</g>
<defs>
<clipPath id="clip0_150_1634">
<rect width="40" height="40" fill="white"/>
</clipPath>
</defs>
</svg>
