<svg width="20" height="20" viewBox="0 0 20 20" fill="none" xmlns="http://www.w3.org/2000/svg">
<g clip-path="url(#clip0_54_9553)">
<path fill-rule="evenodd" clip-rule="evenodd" d="M2.17852 4.52167C2.27314 4.29323 2.43337 4.09799 2.63896 3.96063C2.84456 3.82327 3.08626 3.74997 3.33352 3.75H11.6669C13.3245 3.75 14.9142 4.40848 16.0863 5.58058C17.2584 6.75268 17.9169 8.3424 17.9169 10C17.9169 11.6576 17.2584 13.2473 16.0863 14.4194C14.9142 15.5915 13.3245 16.25 11.6669 16.25H4.16685C3.83533 16.25 3.51739 16.1183 3.28297 15.8839C3.04855 15.6495 2.91685 15.3315 2.91685 15C2.91685 14.6685 3.04855 14.3505 3.28297 14.1161C3.51739 13.8817 3.83533 13.75 4.16685 13.75H11.6669C12.6614 13.75 13.6152 13.3549 14.3185 12.6516C15.0218 11.9484 15.4169 10.9946 15.4169 10C15.4169 9.00544 15.0218 8.05161 14.3185 7.34835C13.6152 6.64509 12.6614 6.25 11.6669 6.25H6.35102L7.13435 7.03333C7.36194 7.26919 7.48779 7.58501 7.48479 7.91275C7.48178 8.2405 7.35018 8.55395 7.11831 8.7856C6.88643 9.01726 6.57286 9.14857 6.24511 9.15126C5.91736 9.15395 5.60166 9.02781 5.36602 8.8L2.44935 5.88333C2.27467 5.70855 2.15572 5.48592 2.10751 5.24356C2.05931 5.0012 2.08402 4.74999 2.17852 4.52167Z" fill="#707070"/>
</g>
<defs>
<clipPath id="clip0_54_9553">
<rect width="20" height="20" fill="white"/>
</clipPath>
</defs>
</svg>
