<svg width="20" height="20" viewBox="0 0 20 20" fill="none" xmlns="http://www.w3.org/2000/svg">
<path d="M10 0C8.02219 0 6.08879 0.58649 4.4443 1.6853C2.79981 2.78412 1.51809 4.3459 0.761209 6.17317C0.00433284 8.00043 -0.193701 10.0111 0.192152 11.9509C0.578004 13.8907 1.53041 15.6725 2.92894 17.0711C4.32746 18.4696 6.10929 19.422 8.0491 19.8079C9.98891 20.1937 11.9996 19.9957 13.8268 19.2388C15.6541 18.4819 17.2159 17.2002 18.3147 15.5557C19.4135 13.9112 20 11.9778 20 10C19.9971 7.34873 18.9426 4.80688 17.0679 2.93215C15.1931 1.05742 12.6513 0.0029116 10 0V0ZM13.982 13.982C13.7945 14.1695 13.5402 14.2748 13.275 14.2748C13.0098 14.2748 12.7555 14.1695 12.568 13.982L9.294 10.708C9.10695 10.5197 9.00137 10.2654 9 10V6C9 5.73478 9.10536 5.48043 9.2929 5.29289C9.48043 5.10536 9.73479 5 10 5C10.2652 5 10.5196 5.10536 10.7071 5.29289C10.8946 5.48043 11 5.73478 11 6V9.586L13.982 12.568C14.1695 12.7555 14.2748 13.0098 14.2748 13.275C14.2748 13.5402 14.1695 13.7945 13.982 13.982V13.982Z" fill="#1F2A37"/>
</svg>
