<svg width="24" height="24" viewBox="0 0 24 24" fill="none" xmlns="http://www.w3.org/2000/svg">
<path d="M23.6072 8.04155L23.9898 5.89869C24.0602 5.50468 23.7572 5.14285 23.357 5.14285H19.3493L20.1327 0.755839C20.203 0.361821 19.9001 0 19.4998 0H17.3231C17.1722 2.74107e-06 17.0261 0.0530889 16.9104 0.149963C16.7947 0.246837 16.7168 0.381324 16.6903 0.529875L15.8665 5.14285H10.5825L11.3659 0.755839C11.4363 0.361821 11.1333 0 10.733 0H8.55632C8.40542 2.74107e-06 8.25933 0.0530889 8.14364 0.149963C8.02794 0.246837 7.95 0.381324 7.92348 0.529875L7.09972 5.14285H2.86243C2.71153 5.14286 2.56544 5.19594 2.44975 5.29282C2.33405 5.38969 2.25611 5.52418 2.22959 5.67273L1.84693 7.81559C1.77659 8.2096 2.07954 8.57142 2.47977 8.57142H6.48745L5.26297 15.4286H1.02568C0.874784 15.4286 0.728695 15.4817 0.612997 15.5785C0.497298 15.6754 0.419366 15.8099 0.392845 15.9584L0.0101845 18.1013C-0.0601548 18.4953 0.242792 18.8571 0.643023 18.8571H4.6507L3.86733 23.2441C3.79699 23.6382 4.09993 24 4.50016 24H6.67688C6.82778 24 6.97387 23.9469 7.08956 23.85C7.20526 23.7532 7.2832 23.6187 7.30972 23.4701L8.13354 18.8571H13.4175L12.6341 23.2441C12.5637 23.6382 12.8667 24 13.267 24H15.4437C15.5946 24 15.7407 23.9469 15.8564 23.85C15.9721 23.7532 16.05 23.6187 16.0765 23.4701L16.9003 18.8571H21.1376C21.2885 18.8571 21.4346 18.804 21.5503 18.7072C21.666 18.6103 21.7439 18.4758 21.7704 18.3273L22.1531 16.1844C22.2234 15.7904 21.9205 15.4286 21.5202 15.4286H17.5126L18.737 8.57142H22.9743C23.1252 8.57142 23.2713 8.51834 23.387 8.42146C23.5027 8.32459 23.5806 8.1901 23.6072 8.04155ZM14.0298 15.4286H8.74581L9.97029 8.57142H15.2542L14.0298 15.4286Z" fill="black"/>
</svg>
