<svg width="16" height="17" viewBox="0 0 16 17" fill="none" xmlns="http://www.w3.org/2000/svg">
<path fill-rule="evenodd" clip-rule="evenodd" d="M3.43442 3.93442C3.58445 3.78444 3.78789 3.70019 4.00002 3.70019C4.21216 3.70019 4.4156 3.78444 4.56562 3.93442L8.00002 7.36882L11.4344 3.93442C11.5082 3.85801 11.5965 3.79706 11.6941 3.75514C11.7917 3.71321 11.8967 3.69114 12.0029 3.69022C12.1091 3.68929 12.2145 3.70953 12.3128 3.74976C12.4111 3.78998 12.5004 3.84939 12.5755 3.9245C12.6507 3.99961 12.7101 4.08894 12.7503 4.18725C12.7905 4.28557 12.8107 4.39091 12.8098 4.49714C12.8089 4.60336 12.7868 4.70834 12.7449 4.80594C12.703 4.90354 12.642 4.99182 12.5656 5.06562L9.13122 8.50002L12.5656 11.9344C12.7114 12.0853 12.792 12.2874 12.7902 12.4971C12.7883 12.7069 12.7042 12.9075 12.5559 13.0559C12.4076 13.2042 12.2069 13.2883 11.9971 13.2902C11.7874 13.292 11.5853 13.2113 11.4344 13.0656L8.00002 9.63122L4.56562 13.0656C4.41474 13.2113 4.21266 13.292 4.0029 13.2902C3.79315 13.2883 3.5925 13.2042 3.44417 13.0559C3.29584 12.9075 3.21171 12.7069 3.20989 12.4971C3.20806 12.2874 3.2887 12.0853 3.43442 11.9344L6.86883 8.50002L3.43442 5.06562C3.28445 4.91559 3.2002 4.71215 3.2002 4.50002C3.2002 4.28788 3.28445 4.08444 3.43442 3.93442V3.93442Z" fill="white"/>
</svg>
