<svg width="16" height="17" viewBox="0 0 16 17" fill="none" xmlns="http://www.w3.org/2000/svg">
<path d="M13.9313 2.5688C13.6313 2.26885 13.2244 2.10034 12.8001 2.10034C12.3758 2.10034 11.9689 2.26885 11.6689 2.5688L5.6001 8.6376V10.9H7.8625L13.9313 4.8312C14.2313 4.53116 14.3998 4.12426 14.3998 3.7C14.3998 3.27574 14.2313 2.86884 13.9313 2.5688Z" fill="white"/>
<path fill-rule="evenodd" clip-rule="evenodd" d="M1.6001 5.29995C1.6001 4.8756 1.76867 4.46864 2.06873 4.16858C2.36878 3.86852 2.77575 3.69995 3.2001 3.69995H6.4001C6.61227 3.69995 6.81575 3.78424 6.96578 3.93427C7.11581 4.0843 7.2001 4.28778 7.2001 4.49995C7.2001 4.71212 7.11581 4.91561 6.96578 5.06564C6.81575 5.21567 6.61227 5.29995 6.4001 5.29995H3.2001V13.3H11.2001V10.1C11.2001 9.88778 11.2844 9.6843 11.4344 9.53427C11.5844 9.38424 11.7879 9.29995 12.0001 9.29995C12.2123 9.29995 12.4158 9.38424 12.5658 9.53427C12.7158 9.6843 12.8001 9.88778 12.8001 10.1V13.3C12.8001 13.7243 12.6315 14.1313 12.3315 14.4313C12.0314 14.7314 11.6244 14.9 11.2001 14.9H3.2001C2.77575 14.9 2.36878 14.7314 2.06873 14.4313C1.76867 14.1313 1.6001 13.7243 1.6001 13.3V5.29995Z" fill="white"/>
</svg>
