<svg width="12" height="12" viewBox="0 0 12 12" fill="none" xmlns="http://www.w3.org/2000/svg">
<path d="M6.00006 0C2.68674 0 0 2.75419 0 6.15192C0 8.86999 1.71918 11.176 4.10322 11.9894C4.40304 12.0464 4.51314 11.856 4.51314 11.6935C4.51314 11.5468 4.50756 11.0622 4.50498 10.5482C2.83578 10.9203 2.48358 9.8223 2.48358 9.8223C2.21058 9.1112 1.81734 8.92216 1.81734 8.92216C1.27296 8.54031 1.85838 8.54819 1.85838 8.54819C2.4609 8.59156 2.77818 9.18213 2.77818 9.18213C3.31332 10.1226 4.18182 9.85072 4.52418 9.69354C4.57806 9.29588 4.73352 9.02452 4.90512 8.87091C3.5724 8.71533 2.17152 8.18781 2.17152 5.8306C2.17152 5.15894 2.40588 4.61014 2.7897 4.17932C2.72736 4.02436 2.52198 3.39865 2.84778 2.5513C2.84778 2.5513 3.35166 2.38594 4.49826 3.18186C4.97688 3.0456 5.49012 2.97725 6.00006 2.97491C6.50994 2.97725 7.02366 3.0456 7.50312 3.18192C8.64834 2.38594 9.1515 2.55136 9.1515 2.55136C9.47808 3.39865 9.27264 4.02442 9.2103 4.17932C9.59502 4.61014 9.82782 5.15894 9.82782 5.8306C9.82782 8.19347 8.42418 8.71373 7.0881 8.86599C7.30332 9.05694 7.49508 9.43128 7.49508 10.0053C7.49508 10.8284 7.48812 11.4909 7.48812 11.6935C7.48812 11.8572 7.59612 12.049 7.90026 11.9886C10.283 11.1742 12 8.86907 12 6.15192C12 2.75425 9.31362 0 6.00006 0ZM2.24724 8.7635C2.23404 8.79408 2.18712 8.80324 2.1444 8.78226C2.10084 8.76221 2.07642 8.7205 2.09052 8.68986C2.10342 8.65837 2.15046 8.64963 2.19384 8.67073C2.23746 8.69079 2.2623 8.73286 2.24724 8.7635ZM2.54238 9.03351C2.51376 9.06076 2.45778 9.04809 2.41986 9.00508C2.38062 8.96221 2.37324 8.90487 2.40228 8.87725C2.43174 8.85006 2.48604 8.86279 2.52534 8.90567C2.56458 8.9491 2.57226 9.00601 2.54238 9.03351ZM2.74482 9.37899C2.70804 9.4052 2.64792 9.38066 2.61078 9.3259C2.574 9.27121 2.574 9.20564 2.61156 9.17931C2.64882 9.15304 2.70804 9.17666 2.74572 9.23098C2.78238 9.28659 2.78238 9.35223 2.74482 9.37899ZM3.08724 9.77911C3.05436 9.81627 2.98434 9.8063 2.93304 9.75555C2.8806 9.70596 2.86596 9.63559 2.89896 9.59837C2.93226 9.56109 3.0027 9.57161 3.05436 9.62193C3.10644 9.67139 3.12234 9.74232 3.08724 9.77911ZM3.5298 9.91414C3.51528 9.96237 3.44784 9.98428 3.37986 9.96379C3.31206 9.94269 3.2676 9.88628 3.28134 9.83755C3.29544 9.78908 3.36318 9.76625 3.43164 9.78815C3.49944 9.80913 3.5439 9.86517 3.5298 9.91414ZM4.03344 9.97148C4.03512 10.0222 3.97752 10.0642 3.90618 10.0652C3.83442 10.0668 3.7764 10.0257 3.77562 9.97585C3.77562 9.9246 3.83196 9.88295 3.90366 9.88172C3.97506 9.88031 4.03344 9.92103 4.03344 9.97148ZM4.5282 9.95204C4.53678 10.0015 4.48722 10.0524 4.41636 10.0659C4.3467 10.079 4.2822 10.0484 4.27338 9.99929C4.26474 9.94853 4.3152 9.89772 4.38474 9.88455C4.45572 9.87194 4.5192 9.90172 4.5282 9.95204Z" fill="white"/>
</svg>
