<svg width="12" height="12" viewBox="0 0 12 12" fill="none" xmlns="http://www.w3.org/2000/svg">
<g clip-path="url(#clip0_178_1098)">
<path d="M0 0.8595C0 0.38475 0.3945 0 0.88125 0H11.1187C11.6055 0 12 0.38475 12 0.8595V11.1405C12 11.6153 11.6055 12 11.1187 12H0.88125C0.3945 12 0 11.6153 0 11.1405V0.8595ZM3.70725 10.0455V4.62675H1.9065V10.0455H3.70725ZM2.80725 3.8865C3.435 3.8865 3.82575 3.471 3.82575 2.9505C3.8145 2.41875 3.43575 2.0145 2.81925 2.0145C2.20275 2.0145 1.8 2.4195 1.8 2.9505C1.8 3.471 2.19075 3.8865 2.79525 3.8865H2.80725ZM6.48825 10.0455V7.01925C6.48825 6.85725 6.50025 6.69525 6.54825 6.57975C6.678 6.2565 6.97425 5.92125 7.47225 5.92125C8.124 5.92125 8.38425 6.41775 8.38425 7.14675V10.0455H10.185V6.9375C10.185 5.2725 9.297 4.4985 8.112 4.4985C7.1565 4.4985 6.72825 5.0235 6.48825 5.39325V5.412H6.47625C6.48023 5.40574 6.48423 5.39949 6.48825 5.39325V4.62675H4.68825C4.71075 5.13525 4.68825 10.0455 4.68825 10.0455H6.48825Z" fill="white"/>
</g>
<defs>
<clipPath id="clip0_178_1098">
<rect width="12" height="12" fill="white"/>
</clipPath>
</defs>
</svg>
