<svg width="12" height="12" viewBox="0 0 12 12" fill="none" xmlns="http://www.w3.org/2000/svg">
<g clip-path="url(#clip0_178_1076)">
<path d="M6 0C9.31714 0 12 2.68286 12 6C12 9.31714 9.31714 12 6 12C2.68286 12 0 9.31714 0 6C0 2.68286 2.68286 0 6 0ZM4.90286 9.16286C7.56 9.16286 9.01714 6.96 9.01714 5.04857V4.86C9.3 4.65429 9.54857 4.39714 9.73714 4.10571C9.48 4.21714 9.19714 4.29429 8.90571 4.33714C9.20571 4.15714 9.43714 3.87429 9.54 3.54C9.25714 3.70286 8.94857 3.82286 8.62286 3.89143C8.35714 3.60857 7.98 3.43714 7.56857 3.43714C6.77143 3.43714 6.12 4.08857 6.12 4.88571C6.12 4.99714 6.12857 5.10857 6.16286 5.21143C4.96286 5.15143 3.89143 4.57714 3.18 3.70286C3.06 3.91714 2.98286 4.16571 2.98286 4.43143C2.98286 4.92857 3.24 5.37429 3.62571 5.63143C3.38571 5.63143 3.16286 5.56286 2.97429 5.45143V5.46857C2.97429 6.17143 3.47143 6.75429 4.13143 6.89143C4.01143 6.92571 3.88286 6.94286 3.75429 6.94286C3.66 6.94286 3.57429 6.93429 3.48 6.91714C3.66 7.49143 4.2 7.91143 4.82571 7.92C4.32857 8.30571 3.70286 8.53714 3.02571 8.53714C2.90571 8.53714 2.79429 8.53714 2.68286 8.52C3.31714 8.93143 4.08 9.17143 4.89429 9.17143" fill="white"/>
</g>
<defs>
<clipPath id="clip0_178_1076">
<rect width="12" height="12" fill="white"/>
</clipPath>
</defs>
</svg>
